# xmcd
#
# Track frame offsets:
#	150
#	32913
#	67684
#	99918
#	124531
#	184909
#	223009
#	267053
#
# Disc length: 4029 seconds
#
# Revision: 0
# Processed by: cddbd v1.5.2PL0 Copyright (c) Steve Scherf et al.
# Submitted via: audiograbber 1.83.01
#
DISCID=660fbb08
DTITLE=Grateful Dead - 93-05-23 Shoreline Amphitheatre, Mountain View CA
DYEAR=1900
DGENRE=
TTITLE0=Jack Straw
TTITLE1=Loser
TTITLE2=It's All Over Now
TTITLE3=Just Like Tom Thumb's Blues
TTITLE4=Bird Song
TTITLE5=The Music Never Stopped
TTITLE6=Iko Iko
TTITLE7=Wave To The Wind
EXTD=
EXTT0=
EXTT1=
EXTT2=
EXTT3=
EXTT4=
EXTT5=
EXTT6=
EXTT7=
PLAYORDER=
